<svg width="183" height="55" viewBox="0 0 183 55" fill="none" xmlns="http://www.w3.org/2000/svg">
<circle cx="27.5" cy="27.5" r="27.5" fill="#ECF0F1"/>
<circle cx="27.5" cy="27.5" r="25.2459" stroke="black"/>
<path d="M44.7744 17.0362C44.7485 16.931 44.6929 16.8353 44.6143 16.7606C44.5357 16.686 44.4373 16.6355 44.3308 16.615C44.183 16.5868 40.7081 15.9486 39.67 18.0585C39.4061 18.6148 38.9864 19.0824 38.4618 19.4047C37.7526 18.6926 36.9232 18.1113 36.0119 17.6875C37.4466 15.4771 38.0072 12.4658 35.5133 10.191C35.4319 10.1167 35.3307 10.0677 35.222 10.05C35.1132 10.0323 35.0017 10.0467 34.901 10.0914C34.8003 10.1361 34.7148 10.2091 34.655 10.3016C34.5951 10.3941 34.5635 10.502 34.564 10.6122C34.564 10.6543 34.5345 14.8375 30.6435 16.1679C30.6253 16.1752 30.6074 16.1834 30.59 16.1925C28.5081 15.9273 26.4009 15.9273 24.3189 16.1925C24.2912 16.1766 24.2621 16.163 24.2321 16.152C20.403 14.8126 20.355 10.7807 20.3547 10.6115C20.3552 10.5014 20.3236 10.3934 20.2637 10.301C20.2038 10.2085 20.1183 10.1354 20.0176 10.0907C19.9169 10.0461 19.8054 10.0317 19.6967 10.0494C19.5879 10.0671 19.4867 10.116 19.4054 10.1903C16.9105 12.4652 17.4717 15.4765 18.9067 17.6868C17.9954 18.1107 17.1661 18.692 16.4569 19.4041C15.9322 19.0818 15.5124 18.6141 15.2484 18.0578C14.2115 15.9476 10.735 16.5859 10.5875 16.6144C10.481 16.6348 10.3827 16.6853 10.304 16.76C10.2254 16.8347 10.1699 16.9303 10.144 17.0356C10.0112 17.673 10.0095 18.3308 10.139 18.9689C10.2684 19.607 10.5263 20.2121 10.897 20.7474C11.8515 22.0638 13.5214 22.846 15.8601 23.0777C16.0438 25.4661 16.859 27.7629 18.2221 29.7327C19.7424 31.8868 21.0745 34.1678 22.2035 36.5505C21.5552 36.8227 21.0017 37.2801 20.6122 37.8654C20.2227 38.4508 20.0146 39.138 20.0138 39.8411V41.3069C20.0149 42.2529 20.3913 43.1598 21.0602 43.8287C21.7292 44.4976 22.6361 44.8738 23.5821 44.8748H31.3369C32.2829 44.8738 33.1898 44.4976 33.8588 43.8287C34.5277 43.1598 34.904 42.2529 34.9051 41.3069V39.8411C34.9044 39.138 34.6962 38.4508 34.3067 37.8654C33.9173 37.2801 33.3637 36.8227 32.7155 36.5505C33.8445 34.1678 35.1766 31.8868 36.6969 29.7327C38.0598 27.7633 38.8749 25.4672 39.0589 23.0793C41.3875 22.8489 43.0516 22.0719 44.0091 20.7652C44.3844 20.2288 44.646 19.6212 44.7776 18.9799C44.9092 18.3386 44.9081 17.6771 44.7744 17.0362ZM37.8277 20.38C38.1404 22.5272 37.8679 24.7191 37.0387 26.7243C36.4494 27.1536 33.6691 28.9681 30.429 27.6371C28.876 26.9988 27.973 25.5579 28.0135 23.7814C28.0492 22.2103 28.856 20.8329 29.9731 20.4325C31.0657 20.0407 31.7309 19.4485 31.9496 18.6725C32.0478 18.3099 32.0491 17.9279 31.9535 17.5647C34.573 18.0957 36.6975 19.0853 37.8277 20.38ZM35.5272 11.9461C36.8349 14.0116 35.5898 16.2975 34.9489 17.2371C34.1538 16.94 33.3379 16.7017 32.5078 16.5243C34.495 15.2578 35.2457 13.2642 35.5272 11.9461ZM19.3917 11.9461C19.6736 13.2642 20.4256 15.2574 22.4124 16.5246C21.5819 16.702 20.7656 16.9403 19.9701 17.2374C19.3289 16.2975 18.0834 14.0133 19.3917 11.9461ZM11.8243 20.0939C11.3337 19.3888 11.1104 18.532 11.1944 17.6771C11.983 17.5955 13.731 17.5414 14.2319 18.5594C14.6045 19.3327 15.1981 19.9781 15.9375 20.414C15.8656 20.916 15.8274 21.4223 15.8235 21.9294C13.9115 21.7159 12.5627 21.1028 11.8243 20.0939ZM19.1575 29.0912C19.1286 29.0491 19.1024 29.0073 19.0742 28.9652C20.2947 28.819 21.1067 29.1356 21.4764 29.9271C22.1584 31.3852 23.2319 32.1916 24.1793 32.9018C25.4315 33.8415 26.2876 34.4865 26.0044 36.2715H23.5821C23.4966 36.2715 23.4123 36.2783 23.3284 36.2845C22.9412 35.3941 21.7405 32.8555 19.1575 29.0912ZM33.7701 39.8411V41.3069C33.7694 41.9522 33.5127 42.5709 33.0563 43.0272C32.5999 43.4835 31.9812 43.7401 31.3359 43.7408H23.5821C22.9368 43.7401 22.3181 43.4835 21.8617 43.0272C21.4053 42.5709 21.1486 41.9522 21.1479 41.3069V39.8411C21.1485 39.1956 21.4051 38.5768 21.8615 38.1203C22.3178 37.6639 22.9367 37.4072 23.5821 37.4065H31.3369C31.9822 37.4073 32.6009 37.664 33.0572 38.1203C33.5135 38.5767 33.7701 39.1954 33.7708 39.8407L33.7701 39.8411ZM31.5906 36.2858C31.5063 36.2799 31.4224 36.2728 31.3369 36.2728H27.1459C27.44 33.9396 26.1311 32.9498 24.8597 31.9956C23.9777 31.334 23.066 30.6503 22.5038 29.4476C22.0437 28.4636 20.9632 27.4326 18.4414 27.9141C17.1981 25.6112 16.7249 22.9707 17.0913 20.3793C18.8179 18.4013 22.8605 17.1296 27.4595 17.1296C28.5248 17.1287 29.589 17.1999 30.6448 17.3427C30.8452 17.6444 30.9213 18.0118 30.8573 18.3682C30.7148 18.8682 30.0898 19.1863 29.5905 19.3655C28.0165 19.9299 26.9271 21.6945 26.8802 23.7561C26.8268 24.7993 27.098 25.8334 27.6564 26.7162C28.2148 27.599 29.033 28.2871 29.9984 28.6859C30.8883 29.0549 31.8422 29.245 32.8056 29.2451C33.9518 29.2342 35.0834 28.9871 36.1299 28.5193C36.0136 28.7099 35.8924 28.9004 35.7615 29.0912C33.1785 32.8555 31.9778 35.3941 31.5906 36.2858ZM43.085 20.1065C42.344 21.109 40.9997 21.7184 39.0962 21.9304C39.0922 21.4229 39.0541 20.9163 38.9821 20.414C39.7216 19.9782 40.3152 19.3327 40.6877 18.5594C41.1572 17.6052 42.7889 17.5712 43.7246 17.6723C43.8104 18.5341 43.5835 19.3981 43.0853 20.1065H43.085Z" fill="#16A085"/>
<path d="M23.9339 39.379C23.6976 39.379 23.4666 39.4491 23.2701 39.5804C23.0736 39.7117 22.9204 39.8983 22.83 40.1167C22.7395 40.335 22.7159 40.5753 22.762 40.8071C22.8081 41.0389 22.9219 41.2518 23.089 41.4189C23.2561 41.586 23.469 41.6998 23.7008 41.7459C23.9326 41.792 24.1729 41.7684 24.3912 41.6779C24.6096 41.5875 24.7962 41.4343 24.9275 41.2378C25.0588 41.0413 25.1289 40.8103 25.1289 40.574C25.1285 40.2572 25.0025 39.9534 24.7785 39.7294C24.5545 39.5054 24.2508 39.3794 23.9339 39.379Z" fill="#16A085"/>
<path d="M29.79 40.5739C29.79 40.8103 29.86 41.0414 29.9913 41.2379C30.1225 41.4344 30.3091 41.5877 30.5275 41.6781C30.7458 41.7686 30.9861 41.7923 31.2179 41.7463C31.4497 41.7002 31.6627 41.5864 31.8298 41.4193C31.997 41.2522 32.1108 41.0393 32.1569 40.8075C32.2031 40.5757 32.1794 40.3354 32.089 40.1171C31.9985 39.8987 31.8454 39.7121 31.6489 39.5807C31.4524 39.4494 31.2213 39.3793 30.985 39.3793C30.6682 39.3797 30.3645 39.5056 30.1405 39.7296C29.9165 39.9535 29.7905 40.2572 29.79 40.5739Z" fill="#16A085"/>
<path d="M21.9899 22.8492C21.7536 22.8492 21.5226 22.9193 21.326 23.0506C21.1295 23.1819 20.9764 23.3685 20.8859 23.5869C20.7955 23.8052 20.7718 24.0455 20.8179 24.2773C20.8641 24.5091 20.9779 24.722 21.145 24.8891C21.3121 25.0562 21.525 25.17 21.7568 25.2161C21.9886 25.2622 22.2289 25.2386 22.4472 25.1481C22.6655 25.0577 22.8522 24.9045 22.9835 24.708C23.1148 24.5115 23.1849 24.2805 23.1849 24.0441C23.1845 23.7273 23.0585 23.4236 22.8345 23.1996C22.6105 22.9756 22.3067 22.8496 21.9899 22.8492Z" fill="#16A085"/>
<path d="M32.929 25.2387C33.1654 25.2388 33.3965 25.1688 33.593 25.0375C33.7896 24.9062 33.9428 24.7196 34.0333 24.5012C34.1238 24.2829 34.1475 24.0426 34.1014 23.8108C34.0553 23.5789 33.9414 23.366 33.7743 23.1989C33.6072 23.0317 33.3942 22.9179 33.1624 22.8718C32.9306 22.8257 32.6903 22.8494 32.4719 22.9399C32.2536 23.0304 32.067 23.1836 31.9357 23.3801C31.8044 23.5767 31.7344 23.8078 31.7344 24.0441C31.7349 24.3608 31.8609 24.6644 32.0848 24.8884C32.3087 25.1123 32.6123 25.2383 32.929 25.2387Z" fill="#16A085"/>
<path d="M83.2887 19.1087V33.1487H79.8687V24.7287L76.7287 33.1487H73.9687L70.8087 24.7087V33.1487H67.3887V19.1087H71.4287L75.3687 28.8287L79.2687 19.1087H83.2887ZM96.2681 27.3887C96.2681 27.7087 96.2481 28.042 96.2081 28.3887H88.4681C88.5214 29.082 88.7414 29.6153 89.1281 29.9887C89.5281 30.3487 90.0147 30.5287 90.5881 30.5287C91.4414 30.5287 92.0347 30.1687 92.3681 29.4487H96.0081C95.8214 30.182 95.4814 30.842 94.9881 31.4287C94.5081 32.0153 93.9014 32.4753 93.1681 32.8087C92.4347 33.142 91.6147 33.3087 90.7081 33.3087C89.6147 33.3087 88.6414 33.0753 87.7881 32.6087C86.9347 32.142 86.2681 31.4753 85.7881 30.6087C85.3081 29.742 85.0681 28.7287 85.0681 27.5687C85.0681 26.4087 85.3014 25.3953 85.7681 24.5287C86.2481 23.662 86.9147 22.9953 87.7681 22.5287C88.6214 22.062 89.6014 21.8287 90.7081 21.8287C91.7881 21.8287 92.7481 22.0553 93.5881 22.5087C94.4281 22.962 95.0814 23.6087 95.5481 24.4487C96.0281 25.2887 96.2681 26.2687 96.2681 27.3887ZM92.7681 26.4887C92.7681 25.902 92.5681 25.4353 92.1681 25.0887C91.7681 24.742 91.2681 24.5687 90.6681 24.5687C90.0947 24.5687 89.6081 24.7353 89.2081 25.0687C88.8214 25.402 88.5814 25.8753 88.4881 26.4887H92.7681ZM109.092 21.9887V33.1487H105.672V31.6287C105.326 32.122 104.852 32.522 104.252 32.8287C103.666 33.122 103.012 33.2687 102.292 33.2687C101.439 33.2687 100.686 33.082 100.032 32.7087C99.3789 32.322 98.8723 31.7687 98.5123 31.0487C98.1523 30.3287 97.9723 29.482 97.9723 28.5087V21.9887H101.372V28.0487C101.372 28.7953 101.566 29.3753 101.952 29.7887C102.339 30.202 102.859 30.4087 103.512 30.4087C104.179 30.4087 104.706 30.202 105.092 29.7887C105.479 29.3753 105.672 28.7953 105.672 28.0487V21.9887H109.092ZM125.107 23.5487C124.854 23.082 124.487 22.7287 124.007 22.4887C123.54 22.2353 122.987 22.1087 122.347 22.1087C121.24 22.1087 120.354 22.4753 119.687 23.2087C119.02 23.9287 118.687 24.8953 118.687 26.1087C118.687 27.402 119.034 28.4153 119.727 29.1487C120.434 29.8687 121.4 30.2287 122.627 30.2287C123.467 30.2287 124.174 30.0153 124.747 29.5887C125.334 29.162 125.76 28.5487 126.027 27.7487H121.687V25.2287H129.127V28.4087C128.874 29.262 128.44 30.0553 127.827 30.7887C127.227 31.522 126.46 32.1153 125.527 32.5687C124.594 33.022 123.54 33.2487 122.367 33.2487C120.98 33.2487 119.74 32.9487 118.647 32.3487C117.567 31.7353 116.72 30.8887 116.107 29.8087C115.507 28.7287 115.207 27.4953 115.207 26.1087C115.207 24.722 115.507 23.4887 116.107 22.4087C116.72 21.3153 117.567 20.4687 118.647 19.8687C119.727 19.2553 120.96 18.9487 122.347 18.9487C124.027 18.9487 125.44 19.3553 126.587 20.1687C127.747 20.982 128.514 22.1087 128.887 23.5487H125.107ZM130.341 27.5487C130.341 26.402 130.555 25.3953 130.981 24.5287C131.421 23.662 132.015 22.9953 132.761 22.5287C133.508 22.062 134.341 21.8287 135.261 21.8287C136.048 21.8287 136.735 21.9887 137.321 22.3087C137.921 22.6287 138.381 23.0487 138.701 23.5687V21.9887H142.121V33.1487H138.701V31.5687C138.368 32.0887 137.901 32.5087 137.301 32.8287C136.715 33.1487 136.028 33.3087 135.241 33.3087C134.335 33.3087 133.508 33.0753 132.761 32.6087C132.015 32.1287 131.421 31.4553 130.981 30.5887C130.555 29.7087 130.341 28.6953 130.341 27.5487ZM138.701 27.5687C138.701 26.7153 138.461 26.042 137.981 25.5487C137.515 25.0553 136.941 24.8087 136.261 24.8087C135.581 24.8087 135.001 25.0553 134.521 25.5487C134.055 26.0287 133.821 26.6953 133.821 27.5487C133.821 28.402 134.055 29.082 134.521 29.5887C135.001 30.082 135.581 30.3287 136.261 30.3287C136.941 30.3287 137.515 30.082 137.981 29.5887C138.461 29.0953 138.701 28.422 138.701 27.5687ZM143.916 27.5487C143.916 26.402 144.129 25.3953 144.556 24.5287C144.996 23.662 145.589 22.9953 146.336 22.5287C147.082 22.062 147.916 21.8287 148.836 21.8287C149.569 21.8287 150.236 21.982 150.836 22.2887C151.449 22.5953 151.929 23.0087 152.276 23.5287V18.3487H155.696V33.1487H152.276V31.5487C151.956 32.082 151.496 32.5087 150.896 32.8287C150.309 33.1487 149.622 33.3087 148.836 33.3087C147.916 33.3087 147.082 33.0753 146.336 32.6087C145.589 32.1287 144.996 31.4553 144.556 30.5887C144.129 29.7087 143.916 28.6953 143.916 27.5487ZM152.276 27.5687C152.276 26.7153 152.036 26.042 151.556 25.5487C151.089 25.0553 150.516 24.8087 149.836 24.8087C149.156 24.8087 148.576 25.0553 148.096 25.5487C147.629 26.0287 147.396 26.6953 147.396 27.5487C147.396 28.402 147.629 29.082 148.096 29.5887C148.576 30.082 149.156 30.3287 149.836 30.3287C150.516 30.3287 151.089 30.082 151.556 29.5887C152.036 29.0953 152.276 28.422 152.276 27.5687ZM163.25 33.3087C162.157 33.3087 161.17 33.0753 160.29 32.6087C159.423 32.142 158.737 31.4753 158.23 30.6087C157.737 29.742 157.49 28.7287 157.49 27.5687C157.49 26.422 157.743 25.4153 158.25 24.5487C158.757 23.6687 159.45 22.9953 160.33 22.5287C161.21 22.062 162.197 21.8287 163.29 21.8287C164.383 21.8287 165.37 22.062 166.25 22.5287C167.13 22.9953 167.823 23.6687 168.33 24.5487C168.837 25.4153 169.09 26.422 169.09 27.5687C169.09 28.7153 168.83 29.7287 168.31 30.6087C167.803 31.4753 167.103 32.142 166.21 32.6087C165.33 33.0753 164.343 33.3087 163.25 33.3087ZM163.25 30.3487C163.903 30.3487 164.457 30.1087 164.91 29.6287C165.377 29.1487 165.61 28.462 165.61 27.5687C165.61 26.6753 165.383 25.9887 164.93 25.5087C164.49 25.0287 163.943 24.7887 163.29 24.7887C162.623 24.7887 162.07 25.0287 161.63 25.5087C161.19 25.9753 160.97 26.662 160.97 27.5687C160.97 28.462 161.183 29.1487 161.61 29.6287C162.05 30.1087 162.597 30.3487 163.25 30.3487Z" fill="#222222"/>
</svg>
