<svg width="212" height="212" viewBox="0 0 212 212" fill="none" xmlns="http://www.w3.org/2000/svg">
<circle cx="106" cy="106" r="106" fill="#ECF0F1"/>
<circle cx="106" cy="106" r="95.8844" stroke="black"/>
<path d="M172.585 65.667C172.485 65.2612 172.271 64.8925 171.968 64.6047C171.665 64.3169 171.286 64.1221 170.875 64.0434C170.306 63.9348 156.911 61.4744 152.91 69.6073C151.893 71.7514 150.275 73.5541 148.253 74.7964C145.519 72.0516 142.322 69.8108 138.81 68.1773C144.34 59.6573 146.5 48.0501 136.888 39.2816C136.574 38.9952 136.184 38.8065 135.765 38.7383C135.346 38.6701 134.916 38.7256 134.528 38.8978C134.139 39.07 133.81 39.3515 133.579 39.708C133.348 40.0645 133.227 40.4805 133.228 40.9051C133.228 41.0675 133.115 57.192 118.117 62.3199C118.047 62.3479 117.978 62.3796 117.911 62.4149C109.886 61.3924 101.763 61.3924 93.7384 62.4149C93.6314 62.3534 93.5195 62.3012 93.4037 62.2588C78.6442 57.0958 78.4594 41.5546 78.4581 40.9026C78.46 40.478 78.3381 40.062 78.1074 39.7055C77.8767 39.349 77.5471 39.0675 77.159 38.8953C76.7708 38.7231 76.3409 38.6676 75.9218 38.7358C75.5027 38.804 75.1125 38.9927 74.7989 39.2791C65.1824 48.0476 67.3455 59.6548 72.8768 68.1748C69.3643 69.8084 66.1676 72.0491 63.4339 74.7939C61.4115 73.5517 59.7932 71.749 58.7756 69.6048C54.7791 61.4707 41.3784 63.931 40.8102 64.0409C40.3997 64.1196 40.0205 64.3144 39.7174 64.6022C39.4144 64.89 39.2003 65.2587 39.1005 65.6645C38.5887 68.1215 38.5822 70.6569 39.0811 73.1165C39.5801 75.5761 40.5742 77.9085 42.0029 79.9718C45.6821 85.0461 52.1189 88.0609 61.1335 88.9539C61.8416 98.1604 64.9837 107.013 70.2379 114.606C76.0981 122.909 81.2326 131.702 85.5843 140.885C83.0857 141.935 80.9522 143.698 79.4508 145.954C77.9495 148.21 77.1472 150.859 77.1443 153.569V159.219C77.1486 162.866 78.5991 166.361 81.1776 168.94C83.7561 171.518 87.252 172.968 90.8984 172.972H120.789C124.436 172.968 127.932 171.518 130.51 168.94C133.089 166.361 134.539 162.866 134.544 159.219V153.569C134.541 150.859 133.738 148.21 132.237 145.954C130.736 143.698 128.602 141.935 126.104 140.885C130.455 131.702 135.59 122.909 141.45 114.606C146.703 107.015 149.845 98.1644 150.554 88.9601C159.53 88.0722 165.945 85.0773 169.635 80.0405C171.082 77.973 172.09 75.631 172.597 73.159C173.105 70.687 173.1 68.1373 172.585 65.667ZM145.809 78.5556C147.014 86.8323 145.964 95.2809 142.768 103.01C140.496 104.665 129.779 111.659 117.29 106.528C111.304 104.068 107.823 98.5142 107.98 91.6665C108.117 85.6106 111.227 80.3016 115.533 78.7579C119.744 77.248 122.308 74.965 123.151 71.9739C123.53 70.5764 123.535 69.104 123.166 67.7039C133.263 69.7509 141.452 73.565 145.809 78.5556ZM136.941 46.0468C141.982 54.0085 137.182 62.8195 134.712 66.4413C131.647 65.296 128.502 64.3776 125.303 63.6937C132.962 58.8118 135.856 51.1273 136.941 46.0468ZM74.7464 46.0468C75.833 51.1273 78.7317 58.8105 86.3899 63.695C83.1887 64.3787 80.0421 65.297 76.9757 66.4426C74.5041 62.8195 69.7034 54.0148 74.7464 46.0468ZM45.5772 77.4528C43.6864 74.7349 42.8257 71.4323 43.1494 68.1373C46.1892 67.8226 52.927 67.614 54.8578 71.538C56.2939 74.5187 58.5818 77.0065 61.4319 78.6867C61.1546 80.6217 61.0077 82.5731 60.9923 84.5278C53.6226 83.7048 48.4235 81.3419 45.5772 77.4528ZM73.8435 112.133C73.7323 111.971 73.6312 111.81 73.5225 111.648C78.2271 111.084 81.3568 112.305 82.7818 115.356C85.4107 120.976 89.5483 124.084 93.2001 126.822C98.0271 130.443 101.327 132.93 100.235 139.81H90.8984C90.5687 139.81 90.244 139.836 89.9205 139.86C88.4281 136.428 83.7997 126.643 73.8435 112.133ZM130.169 153.569V159.219C130.166 161.707 129.176 164.091 127.417 165.85C125.658 167.609 123.273 168.598 120.786 168.601H90.8984C88.4109 168.598 86.026 167.609 84.267 165.85C82.508 164.091 81.5184 161.707 81.5154 159.219V153.569C81.5178 151.081 82.507 148.696 84.2661 146.937C86.0252 145.177 88.4105 144.188 90.8984 144.185H120.789C123.277 144.188 125.662 145.178 127.42 146.937C129.179 148.696 130.169 151.081 130.171 153.568L130.169 153.569ZM121.767 139.865C121.443 139.843 121.119 139.815 120.789 139.815H104.635C105.769 130.822 100.723 127.007 95.8228 123.329C92.4233 120.778 88.9089 118.143 86.7421 113.507C84.9686 109.714 80.8036 105.74 71.0834 107.596C66.2909 98.7196 64.4671 88.5415 65.8793 78.5531C72.5346 70.9286 88.1171 66.0267 105.844 66.0267C109.95 66.0234 114.052 66.2979 118.122 66.8484C118.894 68.0111 119.188 69.4273 118.941 70.8012C118.392 72.7282 115.982 73.9547 114.058 74.6453C107.991 76.8209 103.792 83.6224 103.611 91.5691C103.405 95.5901 104.451 99.5761 106.603 102.979C108.755 106.382 111.909 109.034 115.63 110.571C119.06 111.994 122.737 112.726 126.451 112.727C130.869 112.685 135.231 111.732 139.264 109.929C138.816 110.663 138.349 111.398 137.844 112.133C127.888 126.643 123.26 136.428 121.767 139.865ZM166.073 77.5015C163.217 81.3656 158.035 83.7148 150.698 84.5316C150.683 82.5756 150.536 80.6229 150.258 78.6867C153.109 77.0068 155.397 74.5189 156.833 71.538C158.642 67.86 164.932 67.7289 168.538 68.1186C168.869 71.4405 167.995 74.7708 166.074 77.5015H166.073Z" fill="#16A085"/>
<path d="M92.2547 151.788C91.3437 151.788 90.4532 152.058 89.6958 152.565C88.9383 153.071 88.348 153.79 87.9993 154.632C87.6507 155.473 87.5595 156.399 87.7372 157.293C87.915 158.186 88.3536 159.007 88.9978 159.651C89.6419 160.295 90.4626 160.734 91.3561 160.912C92.2496 161.089 93.1757 160.998 94.0173 160.65C94.8589 160.301 95.5783 159.711 96.0844 158.953C96.5905 158.196 96.8606 157.305 96.8606 156.394C96.8593 155.173 96.3736 154.002 95.5101 153.139C94.6466 152.275 93.4758 151.79 92.2547 151.788Z" fill="#16A085"/>
<path d="M114.827 156.394C114.827 157.305 115.097 158.196 115.603 158.953C116.109 159.711 116.828 160.302 117.67 160.65C118.511 160.999 119.437 161.091 120.331 160.913C121.225 160.735 122.045 160.297 122.69 159.653C123.334 159.009 123.773 158.188 123.951 157.294C124.128 156.401 124.037 155.475 123.689 154.633C123.34 153.791 122.75 153.072 121.992 152.566C121.235 152.06 120.344 151.79 119.433 151.79C118.212 151.791 117.042 152.276 116.178 153.14C115.315 154.003 114.829 155.173 114.827 156.394Z" fill="#16A085"/>
<path d="M84.7613 88.0734C83.8504 88.0734 82.9599 88.3435 82.2024 88.8496C81.445 89.3557 80.8546 90.0751 80.506 90.9167C80.1574 91.7583 80.0662 92.6844 80.2439 93.5779C80.4216 94.4713 80.8603 95.292 81.5044 95.9362C82.1486 96.5803 82.9693 97.019 83.8628 97.1967C84.7562 97.3744 85.6823 97.2832 86.5239 96.9346C87.3656 96.586 88.0849 95.9957 88.591 95.2382C89.0971 94.4808 89.3673 93.5903 89.3673 92.6793C89.3659 91.4581 88.8802 90.2874 88.0168 89.4239C87.1533 88.5604 85.9825 88.0747 84.7613 88.0734Z" fill="#16A085"/>
<path d="M126.927 97.284C127.838 97.2842 128.728 97.0143 129.486 96.5083C130.244 96.0023 130.834 95.2829 131.183 94.4412C131.532 93.5996 131.623 92.6734 131.445 91.7798C131.268 90.8862 130.829 90.0654 130.185 89.4212C129.54 88.777 128.72 88.3383 127.826 88.1606C126.932 87.9829 126.006 88.0742 125.165 88.423C124.323 88.7718 123.604 89.3623 123.098 90.1199C122.592 90.8776 122.322 91.7682 122.322 92.6793C122.323 93.9 122.809 95.0703 123.672 95.9335C124.536 96.7967 125.706 97.2823 126.927 97.284Z" fill="#16A085"/>
</svg>
